{"title":"U2 Medium, Rare &amp; Remastered [EAC-FLAC]","uid":4875565,"size":534397264,"categoryP":"audio","categoryS":"flac","magnet":"?xt=urn:btih:2c6ae6b0b83fa2420abb07102e7e00c71e64205c&amp;dn=U2+Medium%2C+Rare+%26+Remastered+%5BEAC-FLAC%5D&amp;tr=udp%3A%2F%2Ftracker.openbittorrent.com%3A80&amp;tr=udp%3A%2F%2Fopen.demonii.com%3A1337&amp;tr=udp%3A%2F%2Ftracker.coppersurfer.tk%3A6969&amp;tr=udp%3A%2F%2Fexodus.desync.com%3A6969","seeders":1,"leechers":0,"uploader":"sgrigua","files":7,"time":1241110632,"description":"This is the last u2.com subscription gift: a double cd with lot of previously unreleased songs, some b-sides and some alternate version. Some of them were released only with the itunes box &quot;the Complete U2&quot; in compressed format... so this is the first nice gift from u2.com.\nAs usual, this is a perfect rip with EAC, with accurate rip match (I received theese original cds just today!): the torrent contain cuesheets, logs (even if they're embedded in the flac file) and an 800x800 scan of the front.\nMy upload speed is 10-15 kbyte/s until the 4th of may, then it will be around 400-500 kbyte/s (!!!), so be patient!\n\nHere the tracklist, then the 2 logs, hope you enjoy!\n\n\n-------------------------------------------------------------------------------\n\n\nDisc: 1\n\n    * Levitate\n    * Love You Like Mad\n    * Smile\n    * Flower Child\n    * Beautiful Ghost/Introduction To Songs Of Experience\n    * Jesus Christ\n    * Xanax And Wine\n    * All Because Of You - (Early mix)\n    * Native Son\n    * Yahweh - (Early mix)\n    * Sometimes You Can't Make It On Your Own - (Early mix) \n\nDisc: 2\n\n    * Saturday Night\n    * Trash, Trampoline And The Party Girl\n    * Angels Too Tied To The Ground\n    * Wave Of Sorrow (Birdland)\n    * Always\n    * Summer Rain\n    * Big Girls Are Best\n    * Neon Lights\n    * Fast Cars \n\n\n\n\n-------------------------------------------------------------------------------\n\n\n\nExact Audio Copy V0.99 prebeta 4 from 23. January 2008\n\nEAC extraction logfile from 30. April 2009, 14:07\n\nU2 / Medium, Rare &amp; Remastered (CD1)\n\nUsed drive  : ATAPI   DVD A  DH20A4P   Adapter: 0  ID: 1\n\nRead mode               : Secure\nUtilize accurate stream : Yes\nDefeat audio cache      : Yes\nMake use of C2 pointers : No\n\nRead offset correction                      : 6\nOverread into Lead-In and Lead-Out          : No\nFill up missing offset samples with silence : Yes\nDelete leading and trailing silent blocks   : No\nNull samples used in CRC calculations       : Yes\nUsed interface                              : Installed external ASPI interface\n\nUsed output format              : User Defined Encoder\nSelected bitrate                : 768 kBit/s\nQuality                         : High\nAdd ID3 tag                     : No\nCommand line compressor         : C:ProgrammiExact Audio CopyFLACFLAC.EXE\nAdditional command line options : -8 -V -T &quot;artist=%a&quot; -T &quot;album=%g&quot; -T &quot;date=%y&quot; -T &quot;genre=%m&quot; %s\n\n\nTOC of the extracted CD\n\n     Track |   Start  |  Length  | Start sector | End sector \n    ---------------------------------------------------------\n        1  |  0:00.00 |  5:09.09 |         0    |    23183   \n        2  |  5:09.09 |  4:18.45 |     23184    |    42578   \n        3  |  9:27.54 |  3:18.09 |     42579    |    57437   \n        4  | 12:45.63 |  4:55.73 |     57438    |    79635   \n        5  | 17:41.61 |  3:55.35 |     79636    |    97295   \n        6  | 21:37.21 |  3:13.56 |     97296    |   111826   \n        7  | 24:51.02 |  4:39.23 |    111827    |   132774   \n        8  | 29:30.25 |  3:35.72 |    132775    |   148971   \n        9  | 33:06.22 |  3:09.71 |    148972    |   163217   \n       10  | 36:16.18 |  4:31.43 |    163218    |   183585   \n       11  | 40:47.61 |  5:30.45 |    183586    |   208380   \n\n\nRange status and errors\n\nSelected range\n\n     Filename D:U2 - 2009 - Medium, Rare &amp; Remastered (CD1).wav\n\n     Peak level 100.0 %\n     Range quality 100.0 %\n     Test CRC 9BB755E4\n     Copy CRC 9BB755E4\n     Copy OK\n\nNo errors occurred\n\n \nAccurateRip summary\n \nTrack  1  accurately ripped (confidence 3)  [ADE0D103]\nTrack  2  accurately ripped (confidence 3)  [2A3672D2]\nTrack  3  accurately ripped (confidence 3)  [B0808AA4]\nTrack  4  accurately ripped (confidence 3)  [549EDEF2]\nTrack  5  accurately ripped (confidence 3)  [949841C5]\nTrack  6  accurately ripped (confidence 3)  [5C0B6F3D]\nTrack  7  accurately ripped (confidence 3)  [771F3F1D]\nTrack  8  accurately ripped (confidence 3)  [427AC29F]\nTrack  9  accurately ripped (confidence 3)  [0B363D53]\nTrack 10  accurately ripped (confidence 3)  [D12A7503]\nTrack 11  accurately ripped (confidence 3)  [0772AEB4]\n \nAll tracks accurately ripped\n\nEnd of status report\n\n-----------------------------------------------------------------------------\n\n\nExact Audio Copy V0.99 prebeta 4 from 23. January 2008\n\nEAC extraction logfile from 30. April 2009, 14:56\n\nU2 / Medium, Rare &amp; Remastered (CD2)\n\nUsed drive  : ATAPI   DVD A  DH20A4P   Adapter: 0  ID: 1\n\nRead mode               : Secure\nUtilize accurate stream : Yes\nDefeat audio cache      : Yes\nMake use of C2 pointers : No\n\nRead offset correction                      : 6\nOverread into Lead-In and Lead-Out          : No\nFill up missing offset samples with silence : Yes\nDelete leading and trailing silent blocks   : No\nNull samples used in CRC calculations       : Yes\nUsed interface                              : Installed external ASPI interface\n\nUsed output format              : User Defined Encoder\nSelected bitrate                : 768 kBit/s\nQuality                         : High\nAdd ID3 tag                     : No\nCommand line compressor         : C:ProgrammiExact Audio CopyFLACFLAC.EXE\nAdditional command line options : -8 -V -T &quot;artist=%a&quot; -T &quot;album=%g&quot; -T &quot;date=%y&quot; -T &quot;genre=%m&quot; %s\n\n\nTOC of the extracted CD\n\n     Track |   Start  |  Length  | Start sector | End sector \n    ---------------------------------------------------------\n        1  |  0:00.00 |  5:12.09 |         0    |    23408   \n        2  |  5:12.09 |  2:35.59 |     23409    |    35092   \n        3  |  7:47.68 |  3:35.26 |     35093    |    51243   \n        4  | 11:23.19 |  4:06.38 |     51244    |    69731   \n        5  | 15:29.57 |  3:48.45 |     69732    |    86876   \n        6  | 19:18.27 |  4:07.67 |     86877    |   105468   \n        7  | 23:26.19 |  3:37.28 |    105469    |   121771   \n        8  | 27:03.47 |  3:30.18 |    121772    |   137539   \n        9  | 30:33.65 |  4:07.18 |    137540    |   156082   \n\n\nRange status and errors\n\nSelected range\n\n     Filename D:U2 - 2009 - Medium, Rare &amp; Remastered (CD2).wav\n\n     Peak level 100.0 %\n     Range quality 100.0 %\n     Test CRC 3B3B67E5\n     Copy CRC 3B3B67E5\n     Copy OK\n\nNo errors occurred\n\n \nAccurateRip summary\n \nTrack  1  accurately ripped (confidence 3)  [405DC7A9]\nTrack  2  accurately ripped (confidence 3)  [4EF7E2AA]\nTrack  3  accurately ripped (confidence 3)  [426BF83D]\nTrack  4  accurately ripped (confidence 3)  [F3E4D67B]\nTrack  5  accurately ripped (confidence 3)  [7809E968]\nTrack  6  accurately ripped (confidence 3)  [B24EE830]\nTrack  7  accurately ripped (confidence 3)  [90B66B74]\nTrack  8  accurately ripped (confidence 3)  [EF723559]\nTrack  9  accurately ripped (confidence 3)  [A615FFED]\n \nAll tracks accurately ripped\n\nEnd of status report\n","torrent":{"xt":"urn:btih:2c6ae6b0b83fa2420abb07102e7e00c71e64205c","amp;dn":"U2+Medium%2C+Rare+%26+Remastered+%5BEAC-FLAC%5D","amp;tr":["udp%3A%2F%2Ftracker.openbittorrent.com%3A80","udp%3A%2F%2Fopen.demonii.com%3A1337","udp%3A%2F%2Ftracker.coppersurfer.tk%3A6969","udp%3A%2F%2Fexodus.desync.com%3A6969"],"infoHash":"2c6ae6b0b83fa2420abb07102e7e00c71e64205c","infoHashBuffer":{"type":"Buffer","data":[44,106,230,176,184,63,162,66,10,187,7,16,46,126,0,199,30,100,32,92]},"announce":[],"urlList":[]}}